HIERARCHY
ROOT Hips
{
	OFFSET	0.00	0.00	0.00
	CHANNELS 6 Xposition Yposition Zposition Zrotation Xrotation Yrotation
	JOINT Spine
	{
		OFFSET	 0.00	0.01	 0.00
		CHANNELS 3 Zrotation Xrotation Yrotation
		JOINT Spine1
		{
			OFFSET	 0.00	 2.45913012437421	 0.00
			CHANNELS 3 Zrotation Xrotation Yrotation
            JOINT Neck
            {
                OFFSET	 0.00	 2.48462964506057	 0.00
                CHANNELS 3 Zrotation Xrotation Yrotation
                JOINT Head
                {
                    OFFSET	 0.00	 0.927524780924562	 0.00
                    CHANNELS 3 Zrotation Xrotation Yrotation
                    End Site 
                    {
                        OFFSET	 0.00	 1.14999962169752	 0.00
                    }
                }
            }
			JOINT LeftShoulder
			{
				OFFSET	 0.00	 2.48462964506057	 0.00
				CHANNELS 3 Zrotation Xrotation Yrotation
				JOINT LeftUpArm
				{
					OFFSET	 0.00	 1.24881979654096	 0.00
					CHANNELS 3 Zrotation Xrotation Yrotation
					JOINT LeftForeArm
					{
						OFFSET	 0.00	2.59758046908119	 0.00
						CHANNELS 3 Zrotation Xrotation Yrotation
						JOINT LeftHand
						{
							OFFSET	 0.00	2.45542024364365	 0.00
							CHANNELS 3 Zrotation Xrotation Yrotation
							JOINT LeftHandThumb 
							{
								OFFSET	 0.00	0.00	 0.00
								CHANNELS 3 Zrotation Xrotation Yrotation
								End Site
								{
									OFFSET	 0.00	0.00	1.00000003353624
								}
							}
							JOINT L_Wrist_End 
							{
								OFFSET	 0.00	0.99999967115358	 0.00
								CHANNELS 3 Zrotation Xrotation Yrotation
								End Site 
								{
									OFFSET	 0.00	 0.00	 0.00
								}
							}
						}
					}
				}
			}
			JOINT RightShoulder
			{
				OFFSET	 0.00	 2.48462964506057	 0.00
				CHANNELS 3 Zrotation Xrotation Yrotation
				JOINT RightUpArm
				{
					OFFSET	 0.00	 1.24881979654096	 0.00
					CHANNELS 3 Zrotation Xrotation Yrotation
					JOINT RightForeArm
					{
						OFFSET	 0.00	2.59758046908119	 0.00
						CHANNELS 3 Zrotation Xrotation Yrotation
						JOINT RightHand
						{
							OFFSET	 0.00	2.45542024364365	 0.00
							CHANNELS 3 Zrotation Xrotation Yrotation
							JOINT RightHandThumb 
							{
								OFFSET	 0.00	0.00	 0.00
								CHANNELS 3 Zrotation Xrotation Yrotation
								End Site
								{
									OFFSET	 0.00	0.00	1.00000003353624
								}
							}
							JOINT R_Wrist_End 
							{
								OFFSET	 0.00	0.99999967115358	 0.00
								CHANNELS 3 Zrotation Xrotation Yrotation
								End Site 
								{
									OFFSET	 0.00	 0.00	 0.00
								}
							}
						}
					}
				}
			}
		}
	}
	JOINT LeftUpLeg
	{
		OFFSET	 1.2719394002717	 0.00	 0.00
		CHANNELS 3 Zrotation Xrotation Yrotation
		JOINT LeftLowLeg
		{
			OFFSET	 0.00	-4.3429100912261	 0.00
			CHANNELS 3 Zrotation Xrotation Yrotation
			JOINT LeftFoot
			{
				OFFSET	 0.00	-4.48767017425826	 0.00
				CHANNELS 3 Zrotation Xrotation Yrotation
				JOINT LeftToeBase
                {
                    OFFSET	 0.00	0.00	 1.51507020887566
                    CHANNELS 3 Zrotation Xrotation Yrotation
                    End Site 
                    {
                        OFFSET	 0.00	0.00	 0.75000010571191
                    }
                }
			}
		}
	}
	JOINT RightUpLeg
	{
		OFFSET	 -1.2719393604653	 0.00	 0.00
		CHANNELS 3 Zrotation Xrotation Yrotation
		JOINT RightLowLeg
		{
			OFFSET	 0.00	-4.3429100912261	 0.00
			CHANNELS 3 Zrotation Xrotation Yrotation
			JOINT RightFoot
			{
				OFFSET	 0.00	-4.48767017425826	 0.00
				CHANNELS 3 Zrotation Xrotation Yrotation
				JOINT RightToeBase
                {
                    OFFSET	 0.00	0.00	 1.51507020887566
                    CHANNELS 3 Zrotation Xrotation Yrotation
                    End Site 
                    {
                        OFFSET	 0.00	0.00	 0.749999965609858
                    }
                }   
			}
		}
	}
}
MOTION 
Frames:	6 
Frame Time: 0.02 
  1.8473699951171876 7.313740234375 9.282139892578124 -127.731 81.5665 836.823 3.73463 -1.30259 1.63621 5.45373 -2.06169 2.25524 -7.58994 59.5631 728.773 14.3174 -89.338 1.31527 -115.1407 -0.642523 10.0947 17.5405 46.989 5.57085 0.0 30.3296 0.0 27.7721 -1.44543 42.1601 0.0 0.0 0.0 0.0 0.0 0.0 113.5337 9.82043 -20.8433 -11.3583 42.9436 4.14442 0.0 38.9487 0.0 -20.2033 -7.48928 -50.7568 0.0 0.0 0.0 0.0 0.0 0.0 16.2191 -16.567 10.5917 0.0 33.569 0.0 -20.8686 -2.3663998 3.78416 0.0 -33.2697 0.0 13.4396 -6.08801 -7.42183 0.0 11.1563 0.0 7.79112 8.39034 -8.64882 0.0 -35.5925 0.0 
  1.817449951171875 7.3056097412109375 9.273579711914062 -127.235 81.4476 836.202 3.80083 -1.36966 1.6239 5.5801 -2.24831 2.2518 -7.62672 59.6445 728.894 18.1427 -89.23 5.15296 -114.7626 -0.767597 9.18823 17.5594 44.3658 4.93023 0.0 28.4086 0.0 27.6732 -1.98039 41.9072 0.0 0.0 0.0 0.0 0.0 0.0 112.9914 9.80129 -19.161 -10.8769 40.5074 4.93752 0.0 36.8903 0.0 -20.6982 -6.54025 -51.8284 0.0 0.0 0.0 0.0 0.0 0.0 16.9814 -17.1121 13.1993 0.0 34.5325 0.0 -20.4871 -2.2905006 3.95545 0.0 -32.9533 0.0 13.803 -5.79446 -6.97813 0.0 10.7918 0.0 7.94882 8.34636 -8.76272 0.0 -35.9865 0.0 
  1.7886700439453125 7.2914801025390625 9.26802978515625 -127.036 81.3537 835.888 3.80702 -1.29227 1.5465 5.75662 -2.87742 2.21099 -8.00264 60.0508 729.366 18.3681 -89.1505 5.33304 -114.3949 -1.15637 8.24767 17.332 41.7698 4.94279 0.0 26.4071 0.0 27.5729 -2.21474 41.5003 0.0 0.0 0.0 0.0 0.0 0.0 112.5533 9.70366 -17.965 -10.773 37.8539 5.53268 0.0 35.0689 0.0 -21.2339 -5.62195 -51.1135 0.0 0.0 0.0 0.0 0.0 0.0 17.6775 -17.5253 15.8627 0.0 35.162 0.0 -20.1275 -2.2514992 4.27358 0.0 -33.5624 0.0 14.1045 -5.52 -6.63595 0.0 10.5455 0.0 7.79547 8.203791 -9.01934 0.0 -35.5371 0.0 
  1.7617799377441405 7.270020141601562 9.26302978515625 -126.856 81.2896 835.636 3.73791 -1.69219 1.58513 6.07171 -2.71537 2.24122 -8.10375 60.1665 729.427 12.9118 -89.0945 -0.245802 -114.0829 -1.37105 7.00963 17.0338 39.3353 5.55618 0.0 24.482 0.0 27.5024 -2.62206 40.9614 0.0 0.0 0.0 0.0 0.0 0.0 112.039 9.41137 -16.5031 -10.9592 35.1114 6.0211 0.0 33.3956 0.0 -21.1553 -5.60686 -52.4342 0.0 0.0 0.0 0.0 0.0 0.0 18.2009 -17.7679 18.1715 0.0 35.3988 0.0 -20.233 -2.2959995 4.53079 0.0 -33.629997 0.0 14.3826 -5.20582 -5.89898 0.0 10.2815 0.0 7.90656 8.0376 -9.5299 0.0 -35.365997 0.0 
  1.737550048828125 7.244760131835937 9.259459838867187 -126.671 81.2571 835.407 3.675 -1.91554 1.5576 6.40484 -2.90856 2.22857 -8.83325 60.4773 730.177 1.09915 -89.0152 -12.3496 -113.6933 -1.61095 5.72297 16.2666 36.6973 6.46646 0.0 22.5746 0.0 27.3874 -2.53425 40.8879 0.0 0.0 0.0 0.0 0.0 0.0 111.3547 8.91477 -14.9071 -10.7156 32.7042 6.08682 0.0 31.8592 0.0 -20.8397 -5.81963 -52.8255 0.0 0.0 0.0 0.0 0.0 0.0 18.5533 -17.8932 20.2271 0.0 35.3015 0.0 -19.0052 -2.3265991 5.44211 0.0 -33.3964 0.0 14.6014 -4.8295 -5.40754 0.0 9.94093 0.0 7.816 7.92364 -9.93623 0.0 -34.4761 0.0 
  1.7156500244140624 7.215830078125 9.2568701171875 -126.868 81.2493 835.563 3.57771 -2.15604 1.53484 6.70364 -3.21007 2.23228 -9.29006 60.9261 730.574 -5.82388 -88.8769 -19.3818 -113.2763 -1.9882 3.9689 15.1223 34.3139 7.52864 0.0 20.887 0.0 26.7023 -3.0944 40.7321 0.0 0.0 0.0 0.0 0.0 0.0 110.762695 8.22684 -13.3448 -10.5463 30.442 6.32897 0.0 30.2673 0.0 -20.2532 -5.37459 -52.9731 0.0 0.0 0.0 0.0 0.0 0.0 18.7713 -17.9711 22.0019 0.0 34.9696 0.0 -19.0536 -2.4013004 5.77941 0.0 -33.2019 0.0 14.7785 -4.49853 -4.5919 0.0 9.67075 0.0 8.07496 7.70723 -10.6174 0.0 -34.9171 0.0 
